<svg id="Layer_1" enable-background="new 0 0 256 256" height="512" viewBox="0 0 256 256" width="512" xmlns="http://www.w3.org/2000/svg"><ellipse cx="128" cy="128" fill="#ff4397" rx="124" ry="124" transform="matrix(.707 -.707 .707 .707 -53.019 128)"/><ellipse cx="128" cy="128" fill="#fcc24c" rx="97.17" ry="97.17" transform="matrix(.707 -.707 .707 .707 -53.019 128)"/><path d="m114.528 140.999h-33.56c-7.091 0-12.999-5.672-12.999-12.999 0-7.09 5.908-12.998 12.999-12.998h33.561v-32.853c0-7.562 5.908-13.471 13.472-13.471 7.326 0 13.472 5.908 13.472 13.471v32.853h33.561c7.091 0 12.999 5.908 12.999 12.998 0 7.327-5.908 12.999-12.999 12.999h-33.561v32.853c0 7.562-6.145 13.471-13.472 13.471-7.563 0-13.472-5.908-13.472-13.471v-32.853z" fill="#7bac51"/><path d="m15.351 128c0-66.581 52.476-120.898 118.324-123.866-1.881-.084-3.772-.134-5.675-.134-68.483 0-124 55.517-124 124s55.517 124 124 124c1.903 0 3.794-.05 5.676-.135-65.848-2.967-118.325-57.284-118.325-123.865z" fill="#ff61b5"/><path d="m240.649 128c0 66.58-52.476 120.898-118.324 123.865 1.881.085 3.772.135 5.675.135 68.483 0 124-55.517 124-124s-55.517-124-124-124c-1.903 0-3.794.05-5.676.135 65.848 2.967 118.325 57.284 118.325 123.865z" fill="#e12579"/><g fill="#690589"><path d="m28.878 74.955c-.279 0-.563-.059-.834-.183-1.004-.461-1.443-1.648-.982-2.652 1.993-4.34 3.992-8.104 6.48-12.203.574-.943 1.804-1.243 2.748-.672.944.573 1.245 1.804.672 2.748-2.406 3.963-4.339 7.602-6.266 11.797-.337.733-1.061 1.165-1.818 1.165z"/><path d="m128 227.17c-54.683 0-99.17-44.487-99.17-99.17s44.487-99.17 99.17-99.17 99.17 44.487 99.17 99.17-44.487 99.17-99.17 99.17zm0-194.34c-52.477 0-95.17 42.693-95.17 95.17s42.693 95.17 95.17 95.17 95.17-42.693 95.17-95.17-42.693-95.17-95.17-95.17z"/><path d="m128 189.322c-8.676 0-15.472-6.796-15.472-15.471v-30.854h-31.56c-8.271 0-14.999-6.729-14.999-14.999 0-8.129 6.869-14.997 14.999-14.997h31.561v-30.853c0-8.675 6.796-15.471 15.472-15.471 8.531 0 15.472 6.94 15.472 15.471v30.854h31.561c8.13 0 14.999 6.868 14.999 14.997 0 8.271-6.729 14.999-14.999 14.999h-31.561v30.854c-.001 8.53-6.942 15.47-15.473 15.47zm-47.032-72.32c-5.962 0-10.999 5.036-10.999 10.997 0 6.064 4.935 10.999 10.999 10.999h33.561c1.104 0 2 .896 2 2v32.854c0 6.433 5.039 11.471 11.472 11.471 6.325 0 11.472-5.146 11.472-11.471v-32.854c0-1.104.896-2 2-2h33.561c6.064 0 10.999-4.935 10.999-10.999 0-5.961-5.037-10.997-10.999-10.997h-33.561c-1.104 0-2-.896-2-2v-32.854c0-6.325-5.146-11.471-11.472-11.471-6.433 0-11.472 5.038-11.472 11.471v32.854c0 1.104-.896 2-2 2z"/><path d="m128 253.94c-32.266 0-64.532-12.281-89.096-36.845-49.127-49.128-49.127-129.063 0-178.191 49.127-49.127 129.064-49.127 178.191 0 49.127 49.128 49.127 129.063 0 178.191-24.563 24.564-56.829 36.845-89.095 36.845zm0-247.882c-31.242 0-62.483 11.892-86.268 35.675-47.567 47.568-47.567 124.967 0 172.535 47.568 47.566 124.967 47.566 172.535 0l1.414 1.414-1.414-1.414c47.567-47.568 47.567-124.967 0-172.535-23.784-23.784-55.025-35.675-86.267-35.675z"/></g></svg>