<svg id="Layer_1" enable-background="new 0 0 256 256" height="512" viewBox="0 0 256 256" width="512" xmlns="http://www.w3.org/2000/svg"><path d="m48.045 26.295c-.974 11.564-13.025 13.389-13.025 13.389 10.347.487 12.925 14.059 12.925 14.059.221-9.677 13.321-14.202 13.321-14.202-9.813-.586-13.221-13.246-13.221-13.246z" fill="#d6df58"/><path d="m61.356 38.044c-8.605-.514-11.832-12.024-11.863-12.14-.19-.702-.848-1.161-1.583-1.102-.725.067-1.298.642-1.359 1.367-.86 10.215-11.313 11.964-11.754 12.033-.763.115-1.313.79-1.273 1.561.04.77.657 1.384 1.428 1.421 9.028.425 11.498 12.718 11.523 12.842.137.711.759 1.217 1.472 1.217.042 0 .084-.001.126-.005.764-.064 1.357-.693 1.375-1.46.194-8.509 12.191-12.777 12.313-12.819.675-.235 1.092-.914.994-1.623-.101-.708-.685-1.249-1.399-1.292zm-13.566 10.346c-1.357-3.13-3.709-6.907-7.587-8.876 2.931-1.405 6.409-3.913 8.202-8.272 1.551 3.071 4.2 6.88 8.334 8.722-3.007 1.639-6.922 4.405-8.949 8.426z" fill="#3a312a"/><path d="m26.346 43.276c-.689 8.179-9.212 9.471-9.212 9.471 7.318.344 9.142 9.944 9.142 9.944.156-6.845 9.422-10.046 9.422-10.046-6.941-.415-9.352-9.369-9.352-9.369z" fill="#d6df58"/><path d="m35.788 51.148c-5.767-.345-7.973-8.185-7.994-8.265-.19-.702-.855-1.163-1.582-1.102-.726.065-1.299.643-1.36 1.368-.579 6.871-7.647 8.067-7.942 8.114-.763.115-1.313.79-1.273 1.56s.657 1.384 1.428 1.421c6.035.284 7.723 8.644 7.739 8.726.135.713.759 1.22 1.472 1.22.042 0 .083-.001.125-.005.765-.063 1.358-.694 1.376-1.461.13-5.71 8.331-8.634 8.413-8.662.676-.234 1.094-.913.996-1.622-.099-.708-.684-1.249-1.398-1.292zm-9.585 6.795c-.924-1.885-2.34-3.947-4.447-5.28 1.856-1.041 3.697-2.629 4.87-4.916 1.057 1.874 2.655 3.954 4.941 5.224-1.849 1.1-3.988 2.739-5.364 4.972z" fill="#3a312a"/><path d="m26.346 16.618c-.689 8.179-9.212 9.471-9.212 9.471 7.318.344 9.142 9.944 9.142 9.944.156-6.845 9.422-10.045 9.422-10.045-6.941-.416-9.352-9.37-9.352-9.37z" fill="#d6df58"/><path d="m35.788 24.49c-5.767-.345-7.973-8.185-7.994-8.265-.19-.702-.855-1.164-1.582-1.102-.726.066-1.299.643-1.36 1.368-.579 6.871-7.647 8.067-7.942 8.114-.763.115-1.313.79-1.273 1.561.04.77.657 1.384 1.427 1.421 6.036.284 7.724 8.644 7.739 8.726.135.713.759 1.22 1.472 1.22.042 0 .083-.002.125-.005.765-.063 1.358-.694 1.376-1.461.13-5.709 8.331-8.634 8.413-8.662.676-.234 1.094-.913.996-1.622-.098-.708-.683-1.25-1.397-1.293zm-9.585 6.795c-.924-1.885-2.34-3.947-4.447-5.279 1.856-1.042 3.697-2.63 4.871-4.917 1.057 1.874 2.655 3.954 4.941 5.224-1.85 1.101-3.989 2.74-5.365 4.972z" fill="#3a312a"/><path d="m129.7 22.141c-.98-.83-2.42-.83-3.4 0l-98.8 83.8v133.55h201v-133.55z" fill="#8ac5dc"/><path d="m229.47 104.797-98.8-83.8c-1.547-1.311-3.792-1.309-5.34 0l-98.8 83.8c-.336.285-.53.704-.53 1.144v133.55c0 .829.671 1.5 1.5 1.5h201c.829 0 1.5-.671 1.5-1.5v-133.55c0-.441-.194-.859-.53-1.144zm-2.47 133.194h-198v-131.355l98.269-83.35c.423-.358 1.038-.358 1.461 0l98.27 83.35z" fill="#3a312a"/><path d="m243.059 111.113-108.834-92.313c-3.607-3.054-8.842-3.056-12.453.004l-38.34 32.52-10.003 8.485-60.487 51.305c-2.948 2.501-3.31 6.919-.809 9.866 2.501 2.949 6.919 3.31 9.867.81l106-89.912 106.001 89.911c1.316 1.116 2.925 1.662 4.525 1.662 1.984 0 3.957-.84 5.341-2.472 2.502-2.947 2.139-7.365-.808-9.866z" fill="#ef6d7a"/><path d="m247.001 115.756c-.186-2.263-1.241-4.318-2.973-5.787l-108.834-92.314c-4.169-3.53-10.221-3.529-14.392.004l-38.341 32.521c-.632.536-.709 1.482-.174 2.114.536.632 1.483.71 2.114.174l38.34-32.52c3.046-2.581 7.468-2.583 10.513-.004l108.834 92.313c1.12.95 1.803 2.28 1.923 3.745.12 1.464-.337 2.887-1.288 4.007-1.047 1.234-2.577 1.942-4.197 1.942-1.299 0-2.562-.464-3.555-1.306l-106.001-89.911c-.56-.475-1.381-.475-1.94 0l-106.001 89.91c-2.312 1.962-5.79 1.677-7.753-.636-.95-1.12-1.407-2.543-1.287-4.007s.803-2.794 1.923-3.745l60.487-51.305c.632-.536.71-1.482.174-2.114s-1.483-.71-2.114-.174l-60.487 51.305c-1.732 1.469-2.787 3.524-2.973 5.787-.185 2.263.521 4.463 1.99 6.193 3.032 3.574 8.406 4.016 11.981.983l105.03-89.086 105.031 89.088c1.535 1.301 3.486 2.018 5.496 2.018 2.503 0 4.867-1.094 6.485-3.001 1.468-1.731 2.175-3.931 1.989-6.194z" fill="#3a312a"/><path d="m128 33.844-8 6.79 87.121 73.89c2.461 2.087 3.879 5.151 3.879 8.377v115.093h16v-120.18z" fill="#6ca6be"/><path d="m92 123.001h72v116.49h-72z" fill="#87796f"/><path d="m164 121.501h-72c-.829 0-1.5.671-1.5 1.5v35.885c0 .829.671 1.5 1.5 1.5s1.5-.671 1.5-1.5v-34.385h69v113.49h-69v-64.877c0-.829-.671-1.5-1.5-1.5s-1.5.671-1.5 1.5v66.377c0 .829.671 1.5 1.5 1.5h72c.829 0 1.5-.671 1.5-1.5v-116.49c0-.829-.671-1.5-1.5-1.5z" fill="#3a312a"/><circle cx="149.5" cy="180.501" fill="#f4e0c4" r="6.595"/><path d="m149.5 172.406c-4.464 0-8.095 3.631-8.095 8.095s3.631 8.095 8.095 8.095 8.095-3.631 8.095-8.095-3.631-8.095-8.095-8.095zm0 13.19c-2.81 0-5.095-2.286-5.095-5.095 0-2.81 2.286-5.095 5.095-5.095 2.81 0 5.095 2.286 5.095 5.095s-2.285 5.095-5.095 5.095z" fill="#3a312a"/></svg>